# xmcd
#
# Track frame offsets:
#	150
#	13661
#	27739
#	37771
#	51130
#	59402
#	67046
#	80432
#	95576
#	115184
#	133483
#
# Disc length: 1946 seconds
#
# Revision: 1
# Processed by: cddbd v1.5.2PL0 Copyright (c) Steve Scherf et al.
# Submitted via: audiograbber 1.83.01
#
DISCID=9a07980b
DTITLE=RUMBLE CLUB - Rides Tonight
DYEAR=2005
DGENRE=Country-Rock
TTITLE0=The Rumble Club
TTITLE1=The Killer
TTITLE2=Old Dog
TTITLE3=Fantasma Juan
TTITLE4=My Hard Luck
TTITLE5=My 56
TTITLE6=Drive 'Em On
TTITLE7=Lord Have Nercy
TTITLE8=Cuts Down to the Wire
TTITLE9=Twilight Zone
TTITLE10=The Country Way
EXTD=casus@rockradio.de®
EXTT0=
EXTT1=
EXTT2=
EXTT3=
EXTT4=
EXTT5=
EXTT6=
EXTT7=
EXTT8=
EXTT9=
EXTT10=
PLAYORDER=
